<svg xmlns="http://www.w3.org/2000/svg" viewBox="0 0 64 64" width="64" height="64" role="img" aria-label="Chip icon">
  <g fill="none" stroke="#ffffff" stroke-width="3.5" stroke-linecap="round" stroke-linejoin="round">
    <rect x="16" y="16" width="32" height="32" rx="4"/>
    <rect x="24" y="24" width="16" height="16" rx="2"/>
    <path d="M16 12 V8 M24 12 V8 M32 12 V8 M40 12 V8 M48 12 V8"/>
    <path d="M16 52 V56 M24 52 V56 M32 52 V56 M40 52 V56 M48 52 V56"/>
    <path d="M12 16 H8 M12 24 H8 M12 32 H8 M12 40 H8 M12 48 H8"/>
    <path d="M52 16 H56 M52 24 H56 M52 32 H56 M52 40 H56 M52 48 H56"/>
  </g>
</svg>